HIERARCHY
ROOT Hips
{
	OFFSET 0.00000 0.00000 0.00000
	CHANNELS 6 Xposition Yposition Zposition Zrotation Yrotation Xrotation 
	JOINT LHipJoint
	{
		OFFSET 0 0 0
		CHANNELS 3 Zrotation Yrotation Xrotation
		JOINT LeftUpLeg
		{
			OFFSET 1.38615 -1.80049 0.80104
			CHANNELS 3 Zrotation Yrotation Xrotation
			JOINT LeftLeg
			{
				OFFSET 2.50172 -6.87341 0.00000
				CHANNELS 3 Zrotation Yrotation Xrotation
				JOINT LeftFoot
				{
					OFFSET 2.67523 -7.35014 0.00000
					CHANNELS 3 Zrotation Yrotation Xrotation
					JOINT LeftToeBase
					{
						OFFSET 0.17446 -0.47932 2.13155
						CHANNELS 3 Zrotation Yrotation Xrotation
						End Site
						{
							OFFSET 0.00000 -0.00000 1.10023
						}
					}
				}
			}
		}
	}
	JOINT RHipJoint
	{
		OFFSET 0 0 0
		CHANNELS 3 Zrotation Yrotation Xrotation
		JOINT RightUpLeg
		{
			OFFSET -1.18047 -1.80049 0.80104
			CHANNELS 3 Zrotation Yrotation Xrotation
			JOINT RightLeg
			{
				OFFSET -2.59789 -7.13765 0.00000
				CHANNELS 3 Zrotation Yrotation Xrotation
				JOINT RightFoot
				{
					OFFSET -2.62125 -7.20183 0.00000
					CHANNELS 3 Zrotation Yrotation Xrotation
					JOINT RightToeBase
					{
						OFFSET -0.31287 -0.85960 2.07814
						CHANNELS 3 Zrotation Yrotation Xrotation
						End Site
						{
							OFFSET -0.00000 -0.00000 1.11766
						}
					}
				}
			}
		}
	}
	JOINT LowerBack
	{
		OFFSET 0 0 0
		CHANNELS 3 Zrotation Yrotation Xrotation
		JOINT Spine
		{
			OFFSET -0.01587 2.16157 -0.12309
			CHANNELS 3 Zrotation Yrotation Xrotation
			JOINT Spine1
			{
				OFFSET 0.04727 2.16674 -0.03569
				CHANNELS 3 Zrotation Yrotation Xrotation
				JOINT Neck
				{
					OFFSET 0 0 0
					CHANNELS 3 Zrotation Yrotation Xrotation
					JOINT Neck1
					{
						OFFSET -0.08586 1.60335 0.32783
						CHANNELS 3 Zrotation Yrotation Xrotation
						JOINT Head
						{
							OFFSET 0.07583 1.65857 -0.31618
							CHANNELS 3 Zrotation Yrotation Xrotation
							End Site
							{
								OFFSET 0.03386 1.69434 -0.14584
							}
						}
					}
				}
				JOINT LeftShoulder
				{
					OFFSET 0 0 0
					CHANNELS 3 Zrotation Yrotation Xrotation
					JOINT LeftArm
					{
						OFFSET 3.17393 1.01901 -0.52897
						CHANNELS 3 Zrotation Yrotation Xrotation
						JOINT LeftForeArm
						{
							OFFSET 5.25287 -0.00000 -0.00000
							CHANNELS 3 Zrotation Yrotation Xrotation
							JOINT LeftHand
							{
								OFFSET 3.51014 -0.00000 0.00000
								CHANNELS 3 Zrotation Yrotation Xrotation
								JOINT LeftFingerBase
								{
									OFFSET 0 0 0
									CHANNELS 3 Zrotation Yrotation Xrotation
									JOINT LeftHandIndex1
									{
										OFFSET 0.70618 -0.00000 -0.00000
										CHANNELS 3 Zrotation Yrotation Xrotation
										End Site
										{
											OFFSET 0.56934 -0.00000 -0.00000
										}
									}
								}
								JOINT LThumb
								{
									OFFSET 0 0 0
									CHANNELS 3 Zrotation Yrotation Xrotation
									End Site
									{
										OFFSET 0.57803 -0.00000 0.57803
									}
								}
							}
						}
					}
				}
				JOINT RightShoulder
				{
					OFFSET 0 0 0
					CHANNELS 3 Zrotation Yrotation Xrotation
					JOINT RightArm
					{
						OFFSET -2.99471 1.26495 -0.61125
						CHANNELS 3 Zrotation Yrotation Xrotation
						JOINT RightForeArm
						{
							OFFSET -5.28721 -0.00000 -0.00000
							CHANNELS 3 Zrotation Yrotation Xrotation
							JOINT RightHand
							{
								OFFSET -3.50544 -0.00000 0.00000
								CHANNELS 3 Zrotation Yrotation Xrotation
								JOINT RightFingerBase
								{
									OFFSET 0 0 0
									CHANNELS 3 Zrotation Yrotation Xrotation
									JOINT RightHandIndex1
									{
										OFFSET -0.88500 -0.00000 -0.00000
										CHANNELS 3 Zrotation Yrotation Xrotation
										End Site
										{
											OFFSET -0.71351 -0.00000 -0.00000
										}
									}
								}
								JOINT RThumb
								{
									OFFSET 0 0 0
									CHANNELS 3 Zrotation Yrotation Xrotation
									End Site
									{
										OFFSET -0.72440 -0.00000 0.72440
									}
								}
							}
						}
					}
				}
			}
		}
	}
}
MOTION
Frames: 12
Frame Time: .0083333
-8.1042 17.6456 -8.0358 0 0 0 0 0 0 -21 0 0 0 0 0 0 0 0 0 0 0 0 0 0 21 0 0 0 0 0 0 0 0 0 0 0 0 0 0 0 0 0 0 0 0 0 0 -16 0 0 21 0 0 11 0 0 0 -8 0 0 0 0 0 0 0 0 0 0 0 0 0 0 0 0 0 0 0 0 8 0 0 0 0 0 0 0 0 0 0 0 0 0 0 0 0 0
-8.1042 17.6456 -8.0358 -1.3940 3.8240 2.8666 0.0000 0.0000 0.0000 -18.3035 -5.5880 -22.4505 2.0359 8.9404 25.6090 -0.0027 -9.1048 -6.3317 0.8678 -5.9397 -16.6094 0.0000 0.0000 0.0000 20.8884 -1.2603 -3.9510 -7.0918 -15.4087 49.2208 -0.1476 5.4421 11.2299 -0.0017 0.2665 -0.7323 1.2211 5.2965 -0.5350 1.3854 7.0077 2.7041 0.9670 3.5079 3.0513 2.5317 19.4944 -9.5136 -3.0905 26.7809 15.1474 1.1205 12.8325 6.9233 0.0000 -0.0000 0.0000 -92.7375 -10.6676 33.6569 15.6743 -25.0770 -3.5068 -0.0000 -0.0000 3.9027 1.2677 42.4393 0.8555 -7.1250 0.0000 -0.0000 -47.6275 66.4305 -27.1241 0.0000 -0.0000 0.0000 77.3623 -11.2497 8.8326 -44.4178 50.4800 -21.7887 0.0000 -0.0000 -15.9250 -26.2216 10.2081 -4.9886 7.1250 -0.0000 -0.0000 0.5689 -18.6299 0.3574
-8.0758 17.6495 -7.8887 -1.2148 3.6814 2.7140 0.0000 0.0000 0.0000 -18.6747 -5.3288 -21.8750 2.0755 9.0216 25.8628 0.0434 -8.9112 -7.0294 0.7712 -5.6073 -15.6492 0.0000 0.0000 0.0000 20.5705 -1.4155 -5.1078 -7.6895 -15.8860 51.4363 -0.2755 4.7248 12.7928 -0.0503 1.4481 -3.9826 0.9995 5.3026 -0.5550 1.3182 7.0212 2.8034 1.0277 3.5100 3.1468 2.7335 19.3910 -9.0647 -3.4459 26.6410 14.7248 0.9211 12.7750 6.7869 0.0000 -0.0000 0.0000 -92.5042 -10.8461 32.9788 15.3410 -24.6190 -3.3667 -0.0000 -0.0000 4.0934 3.7498 40.0675 2.4157 -7.1250 0.0000 -0.0000 -41.4327 65.4953 -22.1845 0.0000 -0.0000 0.0000 77.6873 -10.7533 9.4896 -44.7281 50.6346 -22.0283 0.0000 -0.0000 -15.6330 -26.0251 10.3604 -5.0183 7.1250 -0.0000 -0.0000 0.7166 -18.4805 0.4525
-8.0542 17.6545 -7.7411 -0.5921 3.6461 2.4852 0.0000 0.0000 0.0000 -19.5307 -5.1563 -20.7988 2.0140 8.8952 25.4679 0.0736 -8.7180 -7.4297 0.7196 -5.4209 -15.1130 0.0000 0.0000 0.0000 19.7757 -1.7657 -6.3016 -8.3555 -16.3746 53.8333 -0.3315 4.3522 13.3598 -0.3237 3.6567 -10.1129 0.2952 5.3402 -0.3360 1.0686 7.0953 2.8490 1.1373 3.5339 3.0164 3.1407 19.2132 -8.8249 -3.6500 26.3680 14.5803 0.7689 12.6561 6.7745 -0.0000 -0.0000 0.0000 -92.0248 -10.7922 32.7516 15.0870 -24.2671 -3.2616 -0.0000 -0.0000 4.0956 3.1264 47.7038 2.3136 -7.1250 0.0000 -0.0000 -56.6575 70.2134 -37.8904 -0.0000 -0.0000 0.0000 78.2306 -10.3654 10.0410 -44.8709 50.7051 -22.1388 0.0000 -0.0000 -15.1605 -26.1266 10.5384 -5.1259 7.1250 -0.0000 -0.0000 0.6556 -18.2740 0.4170
-8.0289 17.6750 -7.5938 -0.0880 3.6354 2.3282 0.0000 0.0000 0.0000 -20.2305 -5.1419 -19.7881 1.9662 8.7952 25.1568 0.1104 -8.3962 -7.8677 0.6931 -5.3220 -14.8293 0.0000 0.0000 0.0000 18.9617 -1.4451 -7.5188 -9.0254 -16.8240 56.1780 -0.4485 2.0901 13.5849 -0.1186 2.2198 -6.1136 -0.1486 5.2879 -0.1659 0.8710 7.0398 2.7014 1.1481 3.5004 2.7407 3.2969 19.1755 -8.4294 -3.4428 26.2955 14.8689 0.7778 12.6462 6.7928 -0.0000 -0.0000 0.0000 -91.7042 -10.3056 32.0798 14.8804 -23.9792 -3.1772 -0.0000 -0.0000 4.4565 2.3209 42.3972 1.5654 -7.1250 0.0000 -0.0000 -46.5699 66.7199 -26.7029 -0.0000 -0.0000 0.0000 78.5872 -10.4929 10.9199 -45.0745 50.8049 -22.2965 0.0000 -0.0000 -14.7158 -25.7031 11.1078 -5.2980 7.1250 -0.0000 -0.0000 0.9874 -17.6887 0.6408
-7.9974 17.6947 -7.4507 0.1439 3.7471 2.2569 0.0000 0.0000 0.0000 -20.6479 -5.2429 -18.8085 1.9029 8.6607 24.7397 0.1387 -8.0270 -8.1490 0.5524 -4.7614 -13.2291 0.0000 0.0000 0.0000 18.3940 -1.2935 -8.8882 -9.7004 -17.2379 58.4821 -0.4826 -0.0756 13.1000 -0.0218 0.9532 -2.6201 -0.3105 5.1916 -0.1074 0.8039 6.9154 2.6667 1.1568 3.4362 2.6634 3.0431 19.0926 -8.7393 -3.0721 26.1810 15.2712 0.9430 12.5862 6.8854 0.0000 0.0000 0.0000 -91.6032 -10.2383 31.4125 14.5594 -23.5287 -3.0479 -0.0000 -0.0000 4.8484 4.9101 41.9116 3.2843 -7.1250 0.0000 -0.0000 -43.2607 67.1707 -24.9253 0.0000 0.0000 0.0000 78.7025 -10.1568 11.7494 -44.9340 50.7361 -22.1876 0.0000 -0.0000 -14.0949 -24.9274 12.1705 -5.5961 7.1250 -0.0000 -0.0000 1.5924 -16.6053 1.0714
-7.9718 17.7042 -7.3040 0.5569 3.8082 2.0901 0.0000 0.0000 0.0000 -21.2626 -5.1544 -17.7907 1.8488 8.5438 24.3783 0.1660 -7.8397 -8.5027 0.5725 -4.8454 -13.4681 0.0000 0.0000 0.0000 17.6860 -1.5807 -10.2106 -10.3629 -17.6089 60.6945 -0.4473 -1.3404 12.2395 -0.0078 0.5709 -1.5688 -0.8273 5.1231 0.0186 0.7857 6.8324 2.7156 1.4069 3.3842 2.5871 2.6394 18.9613 -9.2571 -2.8105 26.0369 15.6384 1.1108 12.4916 6.9969 -0.0000 0.0000 0.0000 -91.6502 -10.3932 30.6190 14.1375 -22.9309 -2.8815 -0.0000 -0.0000 5.4400 5.5118 41.9290 3.6893 -7.1250 0.0000 -0.0000 -42.7037 67.3671 -24.7392 -0.0000 0.0000 0.0000 78.7468 -9.8387 12.5429 -44.9339 50.7360 -22.1875 0.0000 -0.0000 -13.4525 -24.6398 13.8080 -6.2474 7.1250 -0.0000 -0.0000 1.8950 -14.8550 1.3466
-7.9529 17.7095 -7.1538 0.8519 3.8638 1.9013 0.0000 0.0000 0.0000 -21.7044 -4.9335 -16.9040 1.8133 8.4658 24.1381 0.1850 -7.8696 -8.8112 0.6794 -5.2703 -14.6812 0.0000 0.0000 0.0000 17.1835 -1.9643 -11.4911 -10.9751 -17.9229 62.7006 -0.3612 -2.6730 10.7458 -0.0000 -0.0032 0.0088 -1.2886 5.0842 0.0008 0.7964 6.7885 2.8412 1.6767 3.3501 2.6738 2.3423 18.9513 -9.5036 -2.6912 26.0539 15.7686 1.2049 12.4843 7.0253 -0.0000 0.0000 0.0000 -91.6188 -10.6466 29.8654 13.7712 -22.4067 -2.7403 -0.0000 -0.0000 6.2263 5.1058 42.0190 3.4227 -7.1250 0.0000 -0.0000 -43.2548 67.3065 -25.0492 -0.0000 0.0000 0.0000 78.9761 -9.6727 13.1184 -45.2482 50.8895 -22.4312 0.0000 -0.0000 -12.6508 -24.5952 14.9652 -6.7412 7.1250 -0.0000 -0.0000 2.0065 -13.6053 1.4792
-7.9331 17.7213 -7.0110 0.7709 4.0862 1.8027 0.0000 0.0000 0.0000 -21.7199 -4.8683 -16.1750 1.7836 8.3999 23.9355 0.2022 -7.8750 -9.0746 0.6588 -5.1913 -14.4550 0.0000 0.0000 0.0000 17.1962 -2.4539 -12.8370 -11.5199 -18.1802 64.4587 -0.2263 -3.8546 8.4835 -0.0157 0.8102 -2.2267 -1.2112 5.0985 -0.1473 0.7825 6.8088 2.8886 1.6389 3.3602 2.8156 2.5647 18.9145 -9.0048 -3.0257 25.9983 15.3184 1.0103 12.4719 6.8714 0.0000 0.0000 0.0000 -91.2636 -10.6475 30.0669 13.5943 -22.1518 -2.6732 -0.0000 -0.0000 6.3841 5.1127 41.9725 3.4243 -7.1250 0.0000 -0.0000 -43.1681 67.2757 -24.9625 0.0000 0.0000 0.0000 79.4914 -9.6028 13.3613 -45.3534 50.9404 -22.5128 0.0000 -0.0000 -11.5081 -24.4766 14.8528 -6.6559 7.1250 -0.0000 -0.0000 2.0785 -13.7423 1.5263
-7.9139 17.7415 -6.8737 0.6432 4.3187 1.7234 0.0000 0.0000 0.0000 -21.6872 -4.8019 -15.4786 1.7593 8.3457 23.7690 0.2288 -7.8659 -9.4640 0.6281 -5.0714 -14.1124 0.0000 0.0000 0.0000 17.2879 -2.8774 -14.1986 -12.0096 -18.3947 66.0193 -0.1112 -4.8144 6.3694 -0.0529 1.4847 -4.0834 -0.9327 5.2842 -0.0915 0.6189 7.0543 2.7587 1.3130 3.4933 2.6957 3.2647 18.6344 -8.7231 -3.2702 25.5740 15.3682 0.8114 12.2844 6.9524 0.0000 -0.0000 0.0000 -90.5964 -10.3162 31.2074 13.5137 -22.0353 -2.6429 -0.0000 -0.0000 5.9965 4.5835 41.9885 3.0699 -7.1250 0.0000 -0.0000 -43.7093 67.1254 -25.1805 0.0000 -0.0000 0.0000 80.4495 -9.8216 13.0731 -45.3532 50.9404 -22.5127 0.0000 -0.0000 -10.1501 -23.5885 14.1747 -6.1033 7.1250 -0.0000 -0.0000 2.6356 -14.5833 1.8891
-7.8956 17.7548 -6.7356 0.6507 4.4499 1.7024 0.0000 0.0000 0.0000 -21.7923 -4.6394 -14.8556 1.7450 8.3133 23.6698 0.2609 -7.9400 -9.9480 0.6599 -5.1955 -14.4670 0.0000 0.0000 0.0000 17.1576 -3.2122 -15.6293 -12.4565 -18.5770 67.4287 -0.0273 -5.6676 4.7279 -0.0172 0.8459 -2.3248 -1.4218 4.8083 -0.1578 1.0858 6.4187 2.9091 2.0567 3.1569 2.7983 2.2164 18.9274 -9.6111 -2.9311 26.1218 16.0795 1.1931 12.4742 7.1653 0.0000 0.0000 0.0000 -91.1034 -10.3819 29.5288 13.4170 -21.8951 -2.6067 -0.0000 -0.0000 6.6407 3.8196 42.2975 2.5726 -7.1250 0.0000 -0.0000 -44.9765 67.1075 -26.0117 0.0000 0.0000 0.0000 79.5912 -9.0695 14.8139 -44.9876 50.7624 -22.2291 0.0000 -0.0000 -8.9497 -22.8992 14.1631 -5.9008 7.1250 -0.0000 -0.0000 3.1044 -14.6757 2.2200
-7.8747 17.7617 -6.5974 0.6289 4.5647 1.7127 0.0000 0.0000 0.0000 -21.8643 -4.5285 -14.2794 1.7342 8.2890 23.5955 0.2841 -7.9634 -10.2761 0.6273 -5.0680 -14.1025 0.0000 0.0000 0.0000 17.0283 -3.5021 -17.0310 -12.8518 -18.7280 68.6644 0.0532 -6.4690 2.9828 -0.0015 0.2538 -0.6973 -1.5942 4.6627 -0.2871 1.2394 6.2260 2.9334 2.3173 3.0535 2.8694 1.8846 18.9360 -9.9163 -2.5409 26.1464 16.5006 1.3876 12.4788 7.2559 0.0000 0.0000 0.0000 -91.1594 -10.4849 28.7392 13.2430 -21.6422 -2.5422 -0.0000 -0.0000 7.4143 4.3729 42.2724 2.9446 -7.1250 0.0000 -0.0000 -44.4025 67.2594 -25.7726 0.0000 0.0000 0.0000 79.4916 -8.6637 15.6063 -44.4480 50.4952 -21.8120 0.0000 -0.0000 -7.8597 -23.1002 14.9659 -6.2859 7.1250 -0.0000 -0.0000 3.0164 -13.7915 2.2135
